<?xml version="1.0" standalone="no"?>
<!DOCTYPE svg PUBLIC "-//W3C//DTD SVG 20010904//EN"
 "http://www.w3.org/TR/2001/REC-SVG-20010904/DTD/svg10.dtd">
<svg version="1.0" xmlns="http://www.w3.org/2000/svg"
 width="568.000000pt" height="568.000000pt" viewBox="0 0 568.000000 568.000000"
 preserveAspectRatio="xMidYMid meet">
<metadata>
Created by potrace 1.14, written by Peter Selinger 2001-2017
</metadata>
<g transform="translate(0.000000,568.000000) scale(0.100000,-0.100000)"
fill="#000000" stroke="none">
<path d="M3579 5112 c0 -15 -1 -372 -1 -794 -1 -423 -4 -768 -8 -768 -4 0 -41
16 -82 35 -144 66 -327 117 -478 133 -86 9 -322 8 -385 -1 -105 -15 -122 -19
-205 -39 -316 -76 -627 -274 -844 -538 -114 -140 -260 -420 -291 -560 -2 -8
-13 -53 -24 -100 -31 -133 -39 -213 -36 -370 4 -169 8 -215 35 -330 116 -493
428 -881 880 -1094 217 -102 431 -149 675 -150 83 0 222 10 265 19 14 3 39 8
55 11 87 15 269 71 325 99 189 94 246 130 365 223 128 102 267 259 356 404 38
61 113 213 138 278 24 61 67 223 77 285 3 22 9 51 12 65 3 14 7 680 9 1480 l4
1456 -328 108 c-308 102 -365 121 -470 159 l-43 15 -1 -26z m-596 -2236 c124
-28 274 -113 372 -212 294 -296 294 -766 1 -1060 -151 -151 -325 -225 -532
-226 -305 -2 -586 186 -705 470 -79 190 -73 420 17 608 104 218 317 382 549
424 52 9 249 6 298 -4z"/>
</g>
</svg>
