<svg id="Layer_1" data-name="Layer 1" xmlns="http://www.w3.org/2000/svg" viewBox="0 0 25.91 37.3">
  <defs>
    <style>
      .cls-1 {
        fill: #fff;
      }
    </style>
  </defs>
  <g id="logo-group">
    <path id="path163331" class="cls-1" d="M1,29.38a13.61,13.61,0,0,0,2.77,4.14A13.17,13.17,0,0,0,7.91,36.3a12.89,12.89,0,0,0,5.05,1,12.89,12.89,0,0,0,5.05-1,13.17,13.17,0,0,0,4.14-2.78,13.61,13.61,0,0,0,2.77-4.14,12.61,12.61,0,0,0,1-5V2.27L19.1,0V12.92a10.73,10.73,0,0,0-1.09-.5,12.89,12.89,0,0,0-5.05-1,12.89,12.89,0,0,0-5.05,1,13.2,13.2,0,0,0-4.14,2.73A13.61,13.61,0,0,0,1,19.29a13.12,13.12,0,0,0,0,10ZM13,18.2a6.14,6.14,0,1,1-6.14,6.14h0A6.17,6.17,0,0,1,13,18.2Z" transform="translate(-0.01)"/>
  </g>
</svg>
