<?xml version="1.0" encoding="UTF-8" standalone="no"?>
<svg
   xmlns:dc="http://purl.org/dc/elements/1.1/"
   xmlns:cc="http://creativecommons.org/ns#"
   xmlns:rdf="http://www.w3.org/1999/02/22-rdf-syntax-ns#"
   xmlns:svg="http://www.w3.org/2000/svg"
   xmlns="http://www.w3.org/2000/svg"
   id="svg17"
   version="1.1"
   height="768"
   width="1024">
  <metadata
     id="metadata23">
    <rdf:RDF>
      <cc:Work
         rdf:about="">
        <dc:format>image/svg+xml</dc:format>
        <dc:type
           rdf:resource="http://purl.org/dc/dcmitype/StillImage" />
      </cc:Work>
    </rdf:RDF>
  </metadata>
  <defs
     id="defs21" />
  <g
     id="g5">
    <title
       id="title2">background</title>
    <path
       id="canvas_background"
       d="M -1,-1 H 581 V 401 H -1 Z"
       style="fill:none" />
  </g>
  <g
     id="g15">
    <title
       id="title7">Layer 1</title>
    <g
       style="fill:#6811eb;stroke-width:0;stroke-miterlimit:2"
       id="logo-group"
       stroke-miterlimit="2"
       transform="matrix(1.1934,0,0,1.1934,-99.014999,-74.261002)">
      <path
         id="path163331"
         d="m 300.8,405.14 c 2.2572,5.1163 5.2668,9.7812 9.1793,13.694 4.0629,3.9125 8.5773,7.0726 13.694,9.1793 5.2668,2.2572 10.985,3.3106 16.703,3.3106 5.7182,0 11.436,-1.0534 16.703,-3.3106 5.1163,-2.1067 9.6307,-5.2668 13.694,-9.1793 3.9125,-3.9125 6.9221,-8.5774 9.1793,-13.694 2.2572,-5.2668 3.3106,-10.835 3.3106,-16.703 v -72.983 l -22.572,-7.524 v 42.736 c -1.2038,-0.60192 -2.4077,-1.2038 -3.6115,-1.6553 -5.2668,-2.2572 -10.835,-3.3106 -16.703,-3.3106 -5.7182,0 -11.436,1.0534 -16.703,3.3106 -5.1163,2.1067 -9.6307,5.2668 -13.694,9.1793 -3.9125,3.9125 -6.9221,8.5774 -9.1793,13.694 -2.1067,5.2668 -3.3106,10.835 -3.3106,16.553 0,5.8687 1.2038,11.436 3.3106,16.703 z m 39.576,-37.018 c 11.136,0 20.315,9.1793 20.315,20.315 0,11.286 -9.1793,20.315 -20.315,20.315 -11.1357,0 -20.315,-9.0288 -20.315,-20.315 0,-11.136 9.1793,-20.315 20.315,-20.315 z" />
      <path
         id="path163333"
         d="m 455.95,345.55 0.15048,4.8154 c -6.0192,-3.0096 -12.64,-4.6649 -19.412,-4.6649 -5.7182,0 -11.436,1.0534 -16.703,3.3106 -5.1163,2.2572 -9.6307,5.2668 -13.694,9.1793 -3.9125,3.9125 -6.9221,8.5774 -9.1793,13.694 -2.1067,5.2668 -3.3106,10.985 -3.3106,16.703 0,5.7182 1.2038,11.436 3.3106,16.703 2.2572,5.1163 5.2668,9.6307 9.1793,13.694 4.0629,3.9125 8.5773,6.9221 13.694,9.1793 5.2668,2.1067 10.985,3.3106 16.703,3.3106 6.7716,0 13.393,-1.6553 19.412,-4.6649 l -0.15048,3.461 h 22.572 v -84.72 z m -9.0288,60.493 c -3.0096,1.8058 -6.6211,2.8591 -10.233,2.8591 -11.136,0 -20.315,-9.1793 -20.315,-20.315 0,-11.1357 9.1793,-20.315 20.315,-20.315 3.9125,0 7.825,1.0534 10.985,3.3106 3.3106,1.9562 5.8687,4.9658 7.3735,8.4269 1.3543,2.7086 1.9562,5.5678 1.9562,8.5774 0,3.6115 -0.90286,7.0726 -2.7086,10.233 -1.8058,3.0096 -4.2134,5.5678 -7.3735,7.223 z" />
      <path
         id="path163335"
         d="m 575.62,371.89 c -2.2572,-5.1163 -5.2668,-9.6307 -9.1793,-13.694 -4.063,-3.9125 -8.5774,-6.9221 -13.694,-9.1793 -5.2668,-2.2572 -10.835,-3.3106 -16.703,-3.3106 -5.7182,0 -11.436,1.0534 -16.703,3.3106 -5.1163,2.2572 -9.6307,5.2668 -13.694,9.1793 -3.9125,3.9125 -6.9221,8.5774 -9.1793,13.694 -2.1067,5.2668 -3.3106,10.835 -3.3106,16.703 v 63.954 l 22.572,7.524 v -33.708 c 1.2038,0.60192 2.4077,1.2038 3.6115,1.6553 5.2668,2.2572 10.985,3.461 16.703,3.461 5.7182,0 11.436,-1.2038 16.703,-3.461 5.1163,-2.1067 9.6307,-5.1163 13.694,-9.1793 3.9125,-3.9125 6.9221,-8.4269 9.1793,-13.543 2.2572,-5.2668 3.3106,-10.985 3.3106,-16.703 0,-5.8687 -1.0534,-11.436 -3.3106,-16.703 z m -39.576,37.018 c -11.136,0 -20.315,-9.1793 -20.315,-20.315 0,-11.1357 9.1793,-20.315 20.315,-20.315 11.1357,0 20.315,9.1793 20.315,20.315 0,11.1357 -9.1793,20.315 -20.315,20.315 z" />
      <path
         id="path163337"
         d="m 638.38,367.52 v -21.067 h -23.926 v -26.936 l -22.572,7.524 v 58.386 c 0,6.3202 1.2038,12.339 3.6115,18.058 2.2572,5.5678 5.7182,10.534 9.9317,14.747 4.2134,4.3639 9.1793,7.6745 14.747,10.082 5.7182,2.4077 11.888,3.6115 18.208,3.6115 v -22.572 c -13.242,0 -23.926,-10.684 -23.926,-23.926 v -17.907 z" />
      <path
         id="path163339"
         d="m 683.63,431.33 c 5.7182,0 11.436,-1.2038 16.703,-3.3106 5.1163,-2.2572 9.7812,-5.2668 13.694,-9.1793 3.9125,-4.063 6.9221,-8.5774 9.1793,-13.694 2.2572,-5.2668 3.3105,-10.985 3.3105,-16.703 0,-5.8687 -1.0534,-11.436 -3.3105,-16.703 -2.2572,-5.1163 -5.2668,-9.7812 -9.1793,-13.694 -4.0629,-3.9125 -8.5774,-6.9221 -13.694,-9.1793 -5.2668,-2.2572 -10.985,-3.3106 -16.703,-3.3106 -5.7182,0 -11.436,1.0534 -16.703,3.3106 -5.1163,2.2572 -9.6307,5.2668 -13.694,9.1793 -3.9125,4.063 -6.9221,8.5774 -9.1793,13.694 -2.1067,5.2668 -3.3105,10.835 -3.3105,16.703 0,5.7182 1.2038,11.436 3.3105,16.703 2.2572,5.1163 5.2668,9.6307 9.1793,13.694 4.0629,3.9125 8.5773,6.9221 13.694,9.1793 5.2668,2.1067 10.985,3.3106 16.703,3.3106 z m 0,-63.202 c 11.136,0 20.315,9.1793 20.315,20.315 0,11.1357 -9.1793,20.315 -20.315,20.315 -11.1357,0 -20.315,-9.1793 -20.315,-20.315 0,-11.1357 9.1793,-20.315 20.315,-20.315 z" />
    </g>
  </g>
</svg>
